<svg height="446pt" viewBox="0 -13 446 446" width="446pt" xmlns="http://www.w3.org/2000/svg" xmlns:xlink="http://www.w3.org/1999/xlink"><linearGradient id="a"><stop offset="0" stop-color="#00efd1"/><stop offset="1" stop-color="#00acea"/></linearGradient><linearGradient id="b" gradientTransform="matrix(1 0 0 -1 -33 467.645)" gradientUnits="userSpaceOnUse" x1="173.766" x2="173.766" xlink:href="#a" y1="487" y2="32.366"/><linearGradient id="c" gradientTransform="matrix(1 0 0 -1 -33 467.645)" gradientUnits="userSpaceOnUse" x1="331.739" x2="331.739" xlink:href="#a" y1="487" y2="32.366"/><linearGradient id="d" gradientTransform="matrix(1 0 0 -1 -33 467.645)" gradientUnits="userSpaceOnUse" x1="250.587" x2="250.587" xlink:href="#a" y1="487" y2="32.366"/><linearGradient id="e" gradientTransform="matrix(1 0 0 -1 -33 467.645)" gradientUnits="userSpaceOnUse" x1="256" x2="256" xlink:href="#a" y1="487" y2="32.366"/><path d="m169.972656 203.046875c-3.867187-3.945313-10.199218-4.003906-14.144531-.136719l-44.136719 43.308594c-1.914062 1.882812-2.996094 4.453125-2.996094 7.140625 0 2.683594 1.082032 5.257813 2.996094 7.136719l44.136719 43.308594c3.945313 3.871093 10.277344 3.808593 14.144531-.132813 3.867188-3.941406 3.808594-10.273437-.132812-14.140625l-36.863282-36.171875 36.863282-36.171875c3.941406-3.867188 4-10.199219.132812-14.140625zm0 0" fill="url(#b)"/><path d="m283.675781 202.90625c-3.941406-3.867188-10.273437-3.808594-14.144531.132812-3.867188 3.945313-3.804688 10.277344.136719 14.144532l36.859375 36.171875-36.859375 36.171875c-3.941407 3.867187-4.003907 10.199218-.136719 14.140625 3.871094 3.941406 10.203125 4.003906 14.144531.132812l44.136719-43.308593c1.917969-1.878907 2.996094-4.453126 2.996094-7.136719 0-2.6875-1.078125-5.257813-2.996094-7.140625zm0 0" fill="url(#c)"/><path d="m239.179688 168.953125c-5.351563-1.359375-10.796876 1.875-12.15625 7.226563l-38.257813 150.5c-1.359375 5.355468 1.875 10.796874 7.230469 12.15625 5.351562 1.363281 10.792968-1.875 12.15625-7.226563l38.253906-150.5c1.363281-5.351563-1.875-10.796875-7.226562-12.15625zm0 0" fill="url(#d)"/><path d="m396 0h-346c-27.601562.03125-49.96875 22.398438-50 50v319.289062c.03125 27.601563 22.398438 49.96875 50 50h346c27.601562-.03125 49.96875-22.398437 50-50v-319.289062c-.03125-27.601562-22.398438-49.96875-50-50zm-346 20h346c16.5625.019531 29.980469 13.4375 30 30v51.15625h-406v-51.15625c.019531-16.5625 13.4375-29.980469 30-30zm346 379.289062h-346c-16.5625-.019531-29.980469-13.4375-30-30v-248.132812h406v248.132812c-.019531 16.5625-13.4375 29.980469-30 30zm0 0" fill="url(#e)"/></svg>