<svg height="507pt" viewBox="-29 0 507 507.6" width="507pt" xmlns="http://www.w3.org/2000/svg" xmlns:xlink="http://www.w3.org/1999/xlink"><linearGradient id="a" gradientTransform="matrix(1 0 0 -1 -31.599532 511.600001)" gradientUnits="userSpaceOnUse" x1="256" x2="256" y1="502" y2="9.415"><stop offset="0" stop-color="#00efd1"/><stop offset="1" stop-color="#00acea"/></linearGradient><path d="m398.5 98.601562h-18.199219v-53.902343c0-24.6875-20.011719-44.699219-44.699219-44.699219s-44.699218 20.011719-44.699218 44.699219v53.800781h-191.300782c-2.632812-.082031-5.1875.890625-7.101562 2.699219l-89.300781 88.800781c-1.878907 1.839844-2.925781 4.371094-2.898438 7v190.398438c0 27.601562 22.398438 50.203124 49.898438 50.203124h67.203125v59.796876c-.0625 2.65625.9375 5.226562 2.777344 7.140624 1.839843 1.914063 4.367187 3.015626 7.019531 3.0625h84.5c5.515625-.128906 9.894531-4.6875 9.800781-10.203124v-59.796876h177.101562c27.628907-.113281 49.953126-22.570312 49.898438-50.203124v-239.296876c-.15625-27.46875-22.53125-49.621093-50-49.5zm-38.097656 115h-49.703125l.101562-135h49.5zm-7.902344 20-17 27.199219-17-27.199219zm-16.898438-213.800781c6.523438-.03125 12.792969 2.53125 17.429688 7.128907 4.632812 4.59375 7.246094 10.84375 7.269531 17.371093v14.300781h-49.398437v-14.300781c.019531-6.527343 2.636718-12.777343 7.269531-17.371093 4.632813-4.597657 10.902344-7.160157 17.429687-7.128907zm-246.199218 112.398438v30.800781c.027344 6.300781-2.480469 12.351562-6.953125 16.789062-4.476563 4.4375-10.546875 6.890626-16.847657 6.8125h-31zm48 355.402343v-244h64v19h-9c-5.523438 0-10 4.476563-10 10 0 5.519532 4.476562 10 10 10h9v20h-15c-5.523438 0-10 4.476563-10 10 0 5.519532 4.476562 10 10 10h15v20h-9c-5.523438 0-10 4.476563-10 10 0 5.519532 4.476562 10 10 10h9v20h-15c-5.523438 0-10 4.476563-10 10 0 5.519532 4.476562 10 10 10h15v20h-9c-5.523438 0-10 4.476563-10 10 0 5.519532 4.476562 10 10 10h9v20h-15c-5.523438 0-10 4.476563-10 10 0 5.519532 4.476562 10 10 10h15v5zm291-100.203124c.011718 16.570312-13.335938 30.050781-29.902344 30.203124h-177.097656v-183.703124c0-5.5-4.203125-10.296876-9.800782-10.296876h-84.5c-5.5 0-9.800781 4.796876-9.800781 10.296876v183.703124h-67c-16.566406-.152343-29.914062-13.632812-29.898437-30.203124v-180.796876h45.199218c11.605469.082032 22.765626-4.480468 30.992188-12.667968 8.222656-8.1875 12.835938-19.328125 12.808594-30.933594v-44.398438h181.398437l-.101562 104.199219c-.003907 2.875.828125 5.691407 2.402343 8.097657l34 54.402343c1.835938 2.925781 5.046876 4.699219 8.5 4.699219 3.453126 0 6.664063-1.773438 8.5-4.699219l34-54.5c1.527344-2.394531 2.359376-5.164062 2.398438-8l-.199219-104.199219h18.101563c7.886718-.085937 15.480468 2.980469 21.09375 8.519532 5.613281 5.539062 8.785156 13.089844 8.804687 20.980468v239.296876zm0 0" fill="url(#a)"/></svg>